<svg width="212" height="61" viewBox="0 0 212 61" fill="none" xmlns="http://www.w3.org/2000/svg">
<path d="M83.1182 41H73.7578V19.8623H82.957C86.9268 19.8623 89.417 21.8984 89.417 25.1357C89.417 27.4502 87.6885 29.3838 85.4473 29.7207V29.8379C88.3184 30.0576 90.4277 32.1523 90.4277 34.9502C90.4277 38.6709 87.6299 41 83.1182 41ZM78.1816 23.1582V28.6514H81.3604C83.7188 28.6514 85.0664 27.6113 85.0664 25.8242C85.0664 24.125 83.8799 23.1582 81.8145 23.1582H78.1816ZM78.1816 37.7041H81.9902C84.5391 37.7041 85.916 36.6201 85.916 34.5986C85.916 32.6211 84.4951 31.5664 81.8877 31.5664H78.1816V37.7041ZM98.6455 38.1582C100.506 38.1582 102.044 36.9424 102.044 35.2432V34.1006L98.7334 34.3057C97.1367 34.4229 96.2285 35.1406 96.2285 36.2539C96.2285 37.4258 97.1953 38.1582 98.6455 38.1582ZM97.2393 41.249C94.251 41.249 91.9805 39.3154 91.9805 36.4883C91.9805 33.6318 94.1777 31.9766 98.0889 31.7422L102.044 31.5078V30.4678C102.044 29.0029 101.019 28.1533 99.4072 28.1533C97.8105 28.1533 96.7998 28.9443 96.5947 30.1016H92.6836C92.8447 27.0547 95.4375 24.96 99.5977 24.96C103.626 24.96 106.248 27.04 106.248 30.2041V41H102.117V38.5977H102.029C101.15 40.2676 99.2021 41.249 97.2393 41.249ZM108.753 29.9111C108.753 26.9229 111.346 24.96 115.374 24.96C119.314 24.96 121.878 26.9521 121.937 29.999H117.996C117.908 28.7393 116.897 27.9629 115.315 27.9629C113.836 27.9629 112.869 28.6367 112.869 29.6475C112.869 30.4238 113.543 30.9512 114.92 31.2734L117.923 31.918C121.072 32.6211 122.347 33.8662 122.347 36.21C122.347 39.3008 119.505 41.3369 115.359 41.3369C111.17 41.3369 108.592 39.3154 108.357 36.2539H112.532C112.737 37.5723 113.777 38.334 115.477 38.334C117.103 38.334 118.084 37.6895 118.084 36.6641C118.084 35.873 117.557 35.4336 116.15 35.0967L113.25 34.4521C110.276 33.7783 108.753 32.2256 108.753 29.9111ZM131.531 28.124C129.656 28.124 128.309 29.5449 128.162 31.5078H134.827C134.739 29.501 133.436 28.124 131.531 28.124ZM134.886 36.1953H138.812C138.343 39.2715 135.53 41.3369 131.648 41.3369C126.814 41.3369 123.914 38.2461 123.914 33.2217C123.914 28.2119 126.844 24.96 131.487 24.96C136.058 24.96 138.943 28.0508 138.943 32.8262V34.1299H128.118V34.3936C128.118 36.6348 129.539 38.1729 131.722 38.1729C133.289 38.1729 134.49 37.3965 134.886 36.1953ZM146.985 41.249C143.06 41.249 140.584 38.1436 140.584 33.1191C140.584 28.1387 143.074 25.0479 147.015 25.0479C149.285 25.0479 151.043 26.249 151.805 27.9922H151.893V19.8623H156.17V41H151.951V38.3047H151.878C151.116 40.0332 149.3 41.249 146.985 41.249ZM148.436 28.4756C146.282 28.4756 144.964 30.2773 144.964 33.1484C144.964 36.0342 146.282 37.8066 148.436 37.8066C150.56 37.8066 151.922 36.0195 151.922 33.1484C151.922 30.292 150.56 28.4756 148.436 28.4756ZM165.091 38.1582C166.951 38.1582 168.489 36.9424 168.489 35.2432V34.1006L165.179 34.3057C163.582 34.4229 162.674 35.1406 162.674 36.2539C162.674 37.4258 163.641 38.1582 165.091 38.1582ZM163.685 41.249C160.696 41.249 158.426 39.3154 158.426 36.4883C158.426 33.6318 160.623 31.9766 164.534 31.7422L168.489 31.5078V30.4678C168.489 29.0029 167.464 28.1533 165.853 28.1533C164.256 28.1533 163.245 28.9443 163.04 30.1016H159.129C159.29 27.0547 161.883 24.96 166.043 24.96C170.071 24.96 172.693 27.04 172.693 30.2041V41H168.562V38.5977H168.475C167.596 40.2676 165.647 41.249 163.685 41.249ZM181.336 25.0479C183.621 25.0479 185.364 26.249 186.17 28.0361H186.258V25.2969H190.477V46.127H186.199V38.3193H186.111C185.379 40.0479 183.548 41.249 181.263 41.249C177.337 41.249 174.891 38.1436 174.891 33.1191C174.891 28.124 177.366 25.0479 181.336 25.0479ZM182.713 37.8066C184.837 37.8066 186.214 36.0195 186.214 33.1484C186.214 30.292 184.822 28.4756 182.713 28.4756C180.574 28.4756 179.271 30.2627 179.271 33.1484C179.271 36.0342 180.574 37.8066 182.713 37.8066Z" fill="white"/>
<rect x="8.00049" y="30.2637" width="31.4853" height="31.4853" rx="5" transform="rotate(-45 8.00049 30.2637)" fill="#3856DD"/>
<rect x="0.707107" y="30.3682" width="41.9471" height="41.9471" rx="4.5" transform="rotate(-45 0.707107 30.3682)" stroke="#3856DD"/>
</svg>
